<mxfile host="app.diagrams.net" modified="2024-01-25T12:26:33.883Z" agent="Mozilla/5.0 (X11; Linux x86_64) AppleWebKit/537.36 (KHTML, like Gecko) Chrome/120.0.0.0 Safari/537.36" etag="059ig7ZuHK8PY-Z8cLJi" version="23.0.1" type="device">
  <diagram name="Page-1" id="BpoAxqBFIOs_Bzv1uMwu">
    <mxGraphModel dx="1393" dy="809" grid="1" gridSize="10" guides="1" tooltips="1" connect="1" arrows="1" fold="1" page="1" pageScale="1" pageWidth="827" pageHeight="1169" math="0" shadow="0">
      <root>
        <mxCell id="0" />
        <mxCell id="1" parent="0" />
        <mxCell id="Txa9qPDLx-QtBO518w3f-2" value="" style="shape=image;verticalLabelPosition=bottom;labelBackgroundColor=default;verticalAlign=top;aspect=fixed;imageAspect=0;image=data:image/png,iVBORw0KGgoAAAANSUhEUgAAA2sAAAIcCAMAAABfO8ZvAAAC8VBMVEUAAAABAQECAgIDAwMEBAQFBQUGBgYHBwcICAgJCQkKCgoLCwsMDAwNDQ0ODg4PDw8QEBARERESEhITExMUFBQVFRUWFhYXFxcYGBgZGRkaGhobGxscHBwdHR0eHh4fHx8gICAhISEiIiIjIyMkJCQlJSUmJiYnJycoKCgpKSkqKiorKyssLCwtLS0uLi4vLy8wMDAxMTEyMjIzMzM0NDQ1NTU2NjY3Nzc4ODg5OTk6Ojo7Ozs8PDw9PT0+Pj4/Pz9AQEBBQUFCQkJDQ0NFRUVGRkZHR0dISEhJSUlLS0tMTExNTU1OTk5PT09QUFBRUVFSUlJTU1NUVFRVVVVWVlZXV1dYWFhZWVlaWlpbW1tcXFxdXV1eXl5fX19gYGBhYWFiYmJjY2NkZGRlZWVmZmZnZ2doaGhpaWlqampra2tsbGxtbW1ubm5vb29wcHBxcXFzc3N0dHR2dnZ3d3d4eHh5eXl6enp7e3t8fHx9fX1+fn5/f3+AgICBgYGCgoKDg4OEhISFhYWGhoaHh4eIiIiJiYmKioqLi4uMjIyNjY2Ojo6QkJCRkZGSkpKTk5OUlJSVlZWWlpaXl5eYmJiZmZmampqbm5ucnJydnZ2enp6fn5+goKChoaGioqKjo6OkpKSlpaWmpqanp6eoqKipqamqqqqrq6usrKytra2urq6vr6+wsLCxsbGysrKzs7O0tLS1tbW2tra3t7e4uLi5ubm6urq7u7u8vLy9vb2+vr6/v7/AwMDBwcHCwsLDw8PExMTFxcXGxsbHx8fIyMjJycnKysrLy8vMzMzNzc3Ozs7Pz8/Q0NDR0dHS0tLT09PU1NTV1dXW1tbX19fY2NjZ2dna2trb29vc3Nzd3d3e3t7f39/g4ODh4eHi4uLj4+Pk5OTl5eXm5ubn5+fo6Ojp6enq6urr6+vs7Ozt7e3u7u7v7+/w8PDx8fHy8vLz8/P09PT19fX29vb39/f4+Pj5+fn6+vr7+/v8/Pz9/f3+/v7///9WsrGjAAAACXBIWXMAABJ0AAASdAHeZh94AAAgAElEQVR4nO3de4CUZb3A8TFv4C0j7VhyyqNdzTymZGnp0XMy6sweL+AqZ90kb0iY4UnTNS4aJkdLKwoDw7K0TOmkhyTiEIZ4QcArAqaCYiLvzs5eYO87z19n5vfO7rzAsu87+87vfWbe+X7/WHbn8uzvnZ0Pc9udN2GIKIoStgcgqpKwRhRNWCOKJqwRRZO/ta03Tai7LW3Mg8lsZ0cwElEs87WWufq65x+bdKMxc6atXr16TRQzEcUxX2ubk03GLKnpNNPui2Ieorjma+2dP2Q/rKztNZOWdbRGMBBRTAvy3MizCy9+yGTOuaYmOXld/2GZjqFr8jleve2pVtsjpHfYniDVbHuCljbbE6QsXxU7i7I2Z9KFy0zjefPSzuwJzfnD+hwi8q+pKGvGrEg68m/n+KUBb9caI/k/Y4i2Oy22R2iyfbvW7qQtT9DRbP12rdHyVbGI27UNK3Ifxy93v5r8YCCbxqQCnk6tbmeH7RGaey0P0Oe0WJ7AbO/0P41uKetXxf58rS2e0GNMa83aFZOzP7cd41YFXNf6BmINa1IFWWupv33juoYru1rrpq19sWFqX8B1rW8g1rAmVZA1s2VGXf3sbcZsm1X31TsCP+tvfQOxhjWpkqwNL+sbiDWsSVhTD2tYk7CmHtawJmFNPaxhTcKaeljDmoQ19bCGNQlr6mENaxLW1MMa1iSsqYc1rElYUw9rWJOwlk/PA9awJmEtV8+t708cdn27zgBYw5qEtVzXJXJdpDMA1rAmYS3b2+8Sa4nVKgNgDWsS1rItdaklFqgMgDWsSVjL9nTe2kMqA2ANaxLWsvV8RKgdnlYZAGtYk7CWa9VhWWoH/1FnAKxhTcKa1HTnN277u9IAWMOahDX1sIY1CWvqYQ1rEtbUwxrWJKyphzWsSVhTD2tYk7CmHtawJmFNPaxhTcKaeljDmoQ19bCGNQlr6mENaxLW1MMa1iSsqYc1rElYUw9rWJOwph7WsCZhTT2sYU3CmnpYw5qENfWwhjUJa+phDWsS1tTDGtYkrPX35q9+8ozKAFjDmoS1fHMPSCQSF/QoDIA1rEmVb62vcegcn+Pd/ry/vEXktwKduMiCTaBZGUxgfQQmKLz9qd3btSnuOx8fqTAAt2vcrkmVf7vmV7ANPN+1tq/CAFjDmoQ1t+tda8cqDIA1rElYc9vyXrF2v8IAWMOahLV8T3wqkTj0xxoDYA1rEtYG2ryuW2UArGFNwpp6WMOahDX1sIY1CWvqYQ1rEtbUwxrWJKyphzWsSVhTD2tYk7CmHtawJmFNPaxhTcKaeljDmoQ19bCGNQlr6mENaxLW1MMa1iSsqYc1rElYUw9rWJOwph7WsCZhTT2sYU3CmnpYw5qENfWwhjUJa+phDWsS1tTDGtYkrKmHNaxJWFMPa1iTsKYe1rAmYU09rGFNwpp6WMOahDX1sIY1CWvqYQ1rEtbUwxrWpKqwtmPOlQ1rlZb3z9fa6zdfMXub6ghYw5o3PWtbjsrtWu02pfV987P2+5HZ6d7zpOYIWMOaNz1rX5bdGI6wdcvmYy01SsY7ukdxBKxhzZuate3vcvfPO13pG/jlY+137nSJpxRHwBrWvKlZ25a/Ml+j9A388rG2ID/eUsURsIY1b2rWMqPdK/O9St/ALx9rz7rT7aP57AjWsObN39rWmybU3ZY2JnPvJRPnB772pMwDcmU+VfMB0VD5PTfyNf17uFjDmjdfa5mrr3v+sUk3GnP/hJVP188Pum52Ax88fp/3XmltQ/2sdcwYvdcxP1TVgDWsefO1tjnZZMySms7e+keNWV7bEXBd2UBbt2m5AryWrT0e1rDmzdfaO3/IflhZ27sp6RjTlnwp4LrWN5DfG8GaVEHWsj278OKHzJqavuyn41bkD8t0Dl2jz/Hq7XBabY/Q1G55gA4nbXmCzpY22xM0Wr4qdhVlbc6kC5eZ5eNzn160KH9Yn0NE/jUVZc2YFUnnmZpM7nZtef/tWvvQNfocr16b02J7hKbtlgfY4TRZnqC9udX2BI2Wr4qFZzh8rW2Qe43jl7+ae46kPfl8IJs8XsvF4zUer3nztbZ4Qo8xrTVre+uWGrPy/KKeh7QZ1rAmVZC1lvrbN65ruLLL/Hri+o2XzQu6rvUNxBrWpAqyZrbMqKvP/aFX5heXTJzXF3Rd6xuINaxJlWRteFnfQKxhTcKaeljDmoQ19bCGNQlr6mENaxLW1MMa1iSsqYc1rElYUw9rWJOwph7WsCZhTT2sYU3CmnpYw5qENfWwhjUJa+phDWsS1tTDGtYkrKmHNaxJWFMPa1iTsKYe1rAmYU09rGFNwpp6WMOahDX1sIY1CWvqYQ1rEtbUwxrWJKyphzWsSVhTD2tYk7CmHtawJmFNPaxhTcKaeljDmoQ19bCGNQlr6mENaxLW1MMa1iSsqYc1rElYUw9rWJOwph7WsCZhTT2sYU3CmnpYw5qENfWwhjUJa+phDWsS1tTDGtYkrKmHNaxJWFMPa1iTsKYe1rAmVb61TNPQOT7H97di5rX3pwKetrgcnWWLmcD2ACmn0fYIjfZ/CpZ/DM2hrZnM0KV8js93UyLbGTuCnbiouhyNVYuqucfyAL1Oi+UJMts7bE+QCnhVVCu8NZ+C3XAvS0hTFQbgPiT3IaXKvw/pV7ANvMK19j6FAbCGNQlrbrWutf0UBsAa1iSsuc1wrX1aYQCsYU3CWv5Uo8XaYoUBsIY1CWv5Xv7i3okPP6gxANawJmFtoA6liwJrWJOwph7WsCZhTT2sYU3CmnpYw5qENfWwhjUJa+phDWsS1tTDGtYkrKmHNaxJWFMPa1iTsKYe1rAmYU09rGFNwpp6WMOahDX1sIY1CWvqYQ1rEtbUwxrWJKyphzWsSVgrWU/dePWC7kEOxxrWJKyVqmm591A4rmn3I7CGNQlrJeox982B6nY/BmtYk7BWoq52rY3M7HYM1rAmYa1Efc21tlfXbsdgDWsS1krUHa61Y3c/BmtYk7BWotqPFWuP7n4M1rAmYa1UbZlwyN4nPDLIEVjDmoS1Ejb4TxNrWJOwph7WsCZhTT2sYU3CmnpYw5qENfWwhjUJa+phDWsS1tTDGtYkrKmHNaxJWFMPa1iTKsla108ur214zZgHk9nODrqu9Q3EGtakSrI2c+KT66fXt5k501avXr0m6LrWNxBrWJMqyJqTfM6YjnHLzLT7ilnX+gZiDWtSBVl7dWqHMZm6hWbSso7W4Ota30CsYU2qIGvSU8mNmXOuqUlOXjdwUPfQpXyOV6/dabM9QrrT8gCdTtryBN2tO2xPkGq0PEBR1jKLz51rGs+bl3ZmT2jOH9bnEJF/hfedCmBt67W1i/Kfdo5f2u9v+9A1+hyvXqvTbHuEVJvlAdqcJssTbE+32J6g0fJVsb0IaxtqZzcPfDH5QX+bkvU7yTxe4/GaVEGP13ov/pn8u2Jy9ue2Y9yqgOta30CsYU2qIGurah5/IVuqtW7a2hcbpvYFXNf6BmINa1IFWVuYlB4x22bVffWOwM/6W99ArGFNqiBrw8z6BmINa1K1W8u80ab0fQfCGtakKrd2x6jEXmP/pvSd82ENa1J1W5sr75/6Md2bNqxhTapqa5n3uW8M/mOlb+2GNaxJVW0t5VJLXKX0rd2whjWpqq117edam6H0rd2whjWpqq2ZenefaS8rfWs3rGFNqm5rzZ/LUjvgHqXvnA9rWJOq25rJLJp115tK37g/rGFNqnJrUYQ1rElYUw9rWJOwph7WsCZhTT2sYU3CmnpYw5qENfWwhjUJa+phDWsS1tTDGtYkrKmHNaxJWFMPa1iTsKYe1rAmYU09rGFNwpp6WMOahDX1sIY1CWvqYQ1rEtbUwxrWJKyphzWsSVhTD2tYk7CmHtawJmFNPaxhTcKaeljDmlSu1k7I95l/m7o53LrRbuDaqec3bHmr4fypawYOwhrWpHK1dukRiXefcOJ7Ekcff+D+S0KtG+kGzs+9k/LIkbl3eL2r/zCsYU0qV2u/3WdutzE989/7dOsFozNh1o1yA988IDHQyE35A7GGNalcrX32UvffK84yryVeDbNulBt4T8LTvPyBWMOaVK7W3j3T/XfWoaYl8X9h1o1yA+d6rf0wfyDWsCaVq7UzT2jP/dNx0qnmT5Vzu7baa+2p/IFYw5pUrtYe2+/YH/xx0R3H7bN82SFfCLVupBt4WYHaxP7DsIY1qVytmaUn5a6wn/izmXvGllDrRrqB3bd/8pDP/OaBkw859r+7Bg7DGtZyla01Y15d/PDL2etIqCchDa9l58Ia1rztam3bvTNuuOct//Nl0kPn+ByvXpOTsj1Co+0BmhzrI6Ss/xQcy1fFwn93u1i75UB5kWqmP7beoUv5HK9ep7Pd9gjpLssDdDvNlifobWu3PUHK8lWxbw/WFiROXbTVWXJa4uf+2IbO+g039yG5DymV633Izx7Xkfun8/jPhV3X+gZiDWtSmVrL7N/gfjL94LDrWt9ArGFNKlNr3fte4X4yeUzYda1vINawJpWpNfP1EUtz/ywb+fOw61rfQKxhTSpXa3OPTJw+ZcrpiSMbsj0cZl3rG4g1rEnlas37i4WJKWHWtb6BWMOaVK7W9vDCwDCyvoFYw5pUrtZKl/UNxBrWpHK19kbN+w5yC7uu9Q3EGtakcrX25cTHJk2Rwq5rfQOxhjWpXK0dfEWp1rW+gVjDmlSu1o6eW6p1rW8g1rAmlau1b54R6slHT7Y2sPGGL9fem/vjO6xhTSpXa91jxsyeJ4Vd19IGvvG+3CuDFxqs5cKaKV9rC/frfyE77LqWNjDpTv+7PVl758qPH3nkB07+USQKsIY1bzujOvHIOS+ul8Kua2cDMyNca5ftwVr6qPx/JZdGMQ3WsOZtJ2u9e99ZqnXtbGDfPgPvpjWotf8a+AW0JyKYBmtY87bz39SM/G6p1rW0gacNvPnxoNY+P2Dt9giGwRrWvO18H3LmqKdLtK6lDXxOdqBxWu8erJ2x29sja4Y1rHnb2dp/HLzXMe5eocKua2sD19Uec+L0nLJBrd3ST23/lyOYBWtY87aztbEDhV3X+gYOaq371Ly170UxAtaw5q3Kfs+/+8fj/vUDh/5TyX49ZsiwhjVvVWbNmOX7Zm/W9rouihGwhjVvVWftELkPudfaCEbAGta8VZu1J/IP2OojGAFrWPNWbdYeyFv7SgQjYA1r3qrN2ta8tQB7LAgd1rDmrdqsmbOE2qieCEbAGta8VZ21nn9/VyLx0Y1RjIA1rHmrOmvZXu7a0zGlDWtY81aN1qIKa1jzhjW9sIY1b1jTC2tY84Y1vbCGNW9Y0wtrWPOGNb2whjVvWNMLa1jzhjW9sIY1b/7Wun5yeW3Da8Zk7r1k4vzA1x7rG4g1rEmVZG3mxCfXT69vM/dPWPl0/fyg61rfQKxhTaoga07yOWM6xi3rrX/UmOW1HQHXtb6BWMOaVEHWXp2a5ZWpW7gp6RjTlnwp4LrWNxBrWJMqyJr0VHLjmprcLmzGreg/qGfoUj7Hq9fhtNkeId1leYAup9nyBD2tO2xPkLJ8VSz8hxvEWmbxuXPN8vG5Ty9alD+szyEi/5qKsbb12tqssGdqcns1G7e831/b0DX6HK9ei5O2PUKq1fIArU7K8gRt6WbbEzRavioWHsr4W9tQO7s5+8+rySzQ9uTzAW4Hc1m/k1z5j9c67ppy4+pQK/B4zVTU47Xei3/m/lu31JiV5/M8ZPDCWdv64dybNdwaZgmsmYqytqrm8ReypcyvJ67feFng/Y1a38CKt3a2+yZEq0IsgTVTUdYWJqVHTOYXl0ycF3h32tY3sNKtdeZ3JXd9iDWwZirK2jCzvoGVbq05/+Z6V4VYA2sGaxFU6dZMfnfDgX8rbpCwZrAWQRVvbaFQGxPmPb+wZrAWQRVvzTx0/N7vufSdMCtgzWAtgirfmjFh38cSawZrERTCWveSu/8S+AnXIQprbe2CP6RDLYA1g7UIGr61lz6efZx04qbwI4Sz1nFOdozDHw6zBNYM1iJo2Na6jpUnJU7JhB4hnLWrZYxDXg+xBNYM1iJo2NaW5F/YCr/n0VDWeg90x7g5xBpYM1iLoGFb+2Xe2iL/k/oUylpTfoyvh1gDawZrETRsa4/nr+QbQo8QylrfKHeM74dZA2tYi6BhW+s7U67j48KPEO7x2mwZY3RjiCWwZrAWQcN/HvLtZPY6fmG4Z9ulcNb6rt8/kThhTaglsIa1CArzWvZbj4f6dY3+wr6+1vLk38K9zIc1g7UIisHvjXS9+Ha4BbBmsBZBFW8tM+vAROLUoO8ROGhYM1iLoIq3dqc8N3JUc4glsGawFkGVbi1zuPuc/x0h1sCawVoEVbo1XssuUVhTr9Kt9Yx0rc0MsQbWDNYiqNKtmUlC7cBXQiyBNYO1CKp4a9vPylJ792/DLIE1g7UIqnhrxvz1h/eFe00dawZrERQDa6HDmsFaBGENaxLW1NvJWs/r7RZGwBrWvFWDte4bD0jsfcHWyEfAGta8VYO16+XZ89Miv+ZjDWveqsBa877uq8KPRD0C1rDmrQqsrcn/ttNtUY+ANax5qwJrm/PWFkQ9Ataw5q0KrJkzhNph24KeddNNl34v5F9pSljDmrdqsLb5E1lqoxYHPefDB+TeA/Wv4UfAGta8VYM10/3QdxcEfj+q9HvlZvCDYXdcgbVcWCtUFdaK6n/yD+9WhB4Ba1jzhrVd+1Xe2qOhR8Aa1rxhbddecqntHf7ZEaxhzRvWdsv9I82G8CNgDWvesLZbXbM+tNcxd5bACdaw5g1rg1UaJFjDmrfhWss0D53jc7x6aafJ9giN6RIutuxHv3y92POkncYSTjCsUvZ/Cpaviq2hrZmeoUv5HK9eh9Nme4R0V8mWaqvJvRz/QJHn6nKaSzbBMGvdYXuClOWrYuHODfch9SrhfUh3h74H/a24c3Ef0sThPqRf1jcwVtb6DnJfiJhe5NmwhrUIipW1lvzr65OKOxvWDNYiKFbW+t/cv8g/wcOawVoExcqa+cGwduiLNYO1CIqXtcz0kYnEiWuLPBfWDNYiKF7Wslfa1a9lij0P1gzWIihu1oYT1gzWIghrWJOwph7WsCZhTT2sYU3CmnpYw5qENfWwhjUJa+phDWsS1tTDGtYkrKkXM2sbLjr+zDt6ijwT1gzWIihe1taMzP0+5NlF/uYI1gzWIihe1j7j/p7/g8WdC2sGaxEUK2vt+b9f+0ZxZ8OawVoExcpax16utW8WdzasGaxFUKysmS+41h4u7lxYM1iLoHhZe0necGRCkefCmsFaBMXLmnljyueTd/cVeSasGaxFUMysDSusGaxFENawJmFNPaxhTcKaelirFGv3nX3KpRv0JsCaelirEGvfyD3DOuJxtQmwph7WKsPaE+4rhx8t+k3CgoY19bBWGdZm5X/97A2tCbCmHtYqw9rNeWubtSbAmnr2rW393+ctY6sEa391qR3NfchhZ30DbVvrvjJ7DTp+jdUZKsGauSxHbf9lahNgTT3b1r4t/11/sMnmDBVhrW/+Fz814Tm9CbCmnmVrnQe4943m2ByiIqxphzX1LFt7M/+Q/1s2h8CawVoEWbbWvr9r7U6bQ2DNYC2CbD9emyzUDt9aouW2futLF/ym2DNhzWAtgmxbe3qfnLXzS7TaxkNzq11a5LmwZirO2j0d2Q8PJrOdHXRd6xto29pJ7n3IEv2e35nuao8Wdy6smUqzti7Zmv04Z9rq1asDv15kfQMtW2vMPzcyrSSrdb7LXW1qcWfDmlG11l3cxvlbW3vLuWJt2n3FrFvt1rbmrd1QktV25Fe7qrizYc0oWnv2jH33/uyKIs7gb23dwrvE2qRlHa3B1612a+bDro4/lma1T7urFfnsCNaMnrU3RuV+Ige8EPwcQe5DvpKzljnnmprk5HUDB/YOXaPP8ep1Otutfv8lgmNciVZ7Ql5C+FJPcefqdppL9P2HXWu77QlSKZ11L3f/+6vxO13hDZkCW2s8b17amT2hOX9Yn0ND96cvf+ikm/9eqtWWJ4/6dMNbpVqNwneya+1Dfqcr/JZeYGtS5/il+c8yrUPX6HO8ei1O2vYIqRbLA7Q4KcsTtDY1256g0dFZ9yzX2vF+p2sbpjUzOejeG6r+8ZqJ29+vZR7+zq3PFn2u+D5eW+BauzX4OQJbWzE5+3PbMW5VwHWxFjNrHWfkrlnTiz1bfK2ZibkLJFnEzziwtda6aWtfbJga9K13sRYza9e4/43/ucizxdia+ct3vr2omNMHvw+5bVbdV+8I/Kw/1mJm7QOutUuKPFucrRUbvw+pV6ys5f8e77wiz4a1QljTK1bW8ns2/U6RZ8NaIazpFStrfxZqoxuLPBvWCmFNr1hZM7//WGKfs172P13vK1s8X2GtENb0ipc1Y9JB3Cw4PJE4rvCXRFgrhDW94mYtSI/IXc33bOr/GmuFsKZXNVrLP4Xyzf6vsVYIa3pVo7VDXWtf6f8aa4Wwplc1WvuIa21i/9dYK4Q1varR2i2uteX9X2OtENb0qkZrvf+ZlTbi+wNfY60Q1vSqRmvGrPrx/NcLX2GtENb0qk5rO4e1QljTC2tY84Y1vbCGNW9Y0wtrWPOGNb2whjVvWNMLa1jzhjW9sIY1b1jTC2tY84Y1vbCGNW9Y0wtrWPOGNb2q0lq64Ytnz+kZ+BJrhbCmVzVae2d07tf8vzjwlr1YK4Q1varR2kXu39T8tP9rrBXCml7VaO2IXd6yFWuFsKZXNVo73LV2dv/XWCuENb2q0do5rrXb+7/GWiGs6VWN1l6XN/c5qav/a6wVwppe1WjNbPracWMaCvvSxFohrOlVldZ2CWuFsKYX1rDmDWt6YQ1r3rCmF9aw5g1remENa96wphfWsOYNa3phDWvesKYX1rDmDWt6YQ1r3rCmF9aw5m241jKtQ9foc7x6LU7a9giNLZYHaHFSlidobbL/U3Dsfv/C76sN+3atZ+hSPser1+G02R4h3WV5gC6n2fIEPa07bE+QsnxVLNy54T6kXtyH5D6kN6zphTWsecOaXljDmjes6YU1rHnDml5Yw5o3rOmFNax5w5peWMOaN6zphTWsecOaXljDmjes6YU1rHnDml5Yw5o3rOmFNax5w5peWMOaN6zphTWsecOaXljDmjes6YU1rHnDml5Yw5o3rOmFNax5w5peWMOaN6zphTWsecOaXljDmjes6YU1rHnDml5Yw5o3rOmFNax5w5peWMOaN6zphTWsecOaXljDmjes6YU1rHnDml5Yw5o3rOmFNax5w5peWMOaN6zphTWsecOaXljDmjes6VVe1tbf92h68JNtuP+PTVojYK0Q1vQqJ2s9X0skEoc9NMiJei/LHjPqAaURsFYIa3qVk7UZiVwHbtj9RLPkmANe0hkBa4Wwplc5WfsHEZW4bvcTjXaPuUZnBKwVwppeZWSt1wWVuGi302T2do+5QGcErBXCml5lZM38oytq2u4nOto95nqdEbBWKJC1ezqyHzL3XjJxfuBrj/UNxNpO1n4ooEa9ufuJfirHHLpJZwSsFQpibV2yNfvx/gkrn66fH3Rd6xuItZ2sZW7cP5H4yGODnWrGiETimGVKI2CtkL+1tbecm7PWW/+oMctrOwKua30DsbbL62vpFc/3DH6y9Irn9nBM+LBWyN/auoV35axtSjrGtCWDPjVsfQOxxu+NSJVkzZhXctbW1PRlPx23ov/AzNClfI5Xr8vZYXuE5h7LA/Q6LZYnyGzvsD1ByvZVsXhry8fnPr1oUf6wPoeI/Cv8+ltga8/U5ICOW95/s9Y8dI7P8eqlnSbbIzSmLQ+QdhotT9Ccsv9TsHxVbC3e2qvJLND25PMBTp/L+p1kHq/xeE2qwMdrvXVLjVl5Ps9DBg9rWPMW2Jr59cT1Gy+bF3Rd6xuINaxJlWgt84tLJs7rC7qu9Q3EGtakyrI2nKxvINawJmFNPaxhTcKaeljDmoQ19bCGNQlr6mENaxLW1MMa1iSsqYc1rElYUw9rWJOwph7WsCbF31rG/yTKZayPYH0ALgNTDpdBf1rWiGjnsEYUTVgjiiasEUUT1oiiCWtE0YQ1omiKobWd9j5Q3F4I4lHXTy6vbXitui+DrTdNqLstXV6XQfys7bz3geL2QhCPZk58cv30+rZqvgwyV1/3/GOTbiyv60HcrO2y94Ei90IQi5zkc8Z0jFtWzZfB5tw7LC6p6SyryyBu1nbZ+0CReyGIRa9OzV6lMnULq/kyeOcP2Q8ra3vL6jKIm7Vd9j6w614Iqqankhur/DJ4duHFD5XX9SCm1vr3PrDLXgiqpczic+dW+2UwZ9KFy8rrMoiptf69D+yyF4Iqaeu1tYuq/TLItiLplNVlEFNr/XsfKHIvBPFoQ+3sZlPdl8EGubc4fnlZXQYxtda/94Ei90IQi3ov/pn7bxVfBosn9BjTWrO2rC6DmFob2PtAcXshiEWrah5/IVuqmi+DlvrbN65ruLKrrC6DuFrr3/tAcXshiEULk9Ij1XwZmC0z6upnbyuv60H8rBGVZ1gjiiasEUUT1oiiCWtE0YQ1omjCGlE0YY0omrBGFE1Yi0Fjx9iegAKEtRiEtYoIazEIaxUR1mLQTtZ6ymYfSLRzWItBY8es/cphR1zSbHoTc6fsO+KUe2wPRIOFtRg09v2HXfWjsYlLs9aOHHF5wycTt9ieiAYJazFobOKu7McxR2etJZYa037KQdtsj0S7h7UYNPag3Ltn1x+RtXZ67utFiXstT0SDhLUYNPa43MeLc9am5D57OzHD7kA0WFiLQe7zkAVrTuIGuwPRYGEtBnms/UvusyUJnoksw7AWgzzWEn8xpvP0EVtsj0S7h7UY5LF25MivT//nxEzbE9EgYS0Geaw13H3iwSffbXsgGiysxamsNdsj0B7DWpzCWjmHtTiFtXIOa3Gqb8rDtlVRDtEAAAAsSURBVEegPYY1omjCGlE0YY0omrBGFE1YI4omrBFFE9aIoglrRNGENaJo+n/c5QtDWU9NPgAAAABJRU5ErkJggg==;" vertex="1" parent="1">
          <mxGeometry width="875" height="540" as="geometry" />
        </mxCell>
        <mxCell id="Txa9qPDLx-QtBO518w3f-3" value="" style="endArrow=classic;html=1;rounded=0;strokeWidth=3;exitX=0.5;exitY=0;exitDx=0;exitDy=0;strokeColor=#9933FF;" edge="1" parent="1" source="Txa9qPDLx-QtBO518w3f-4">
          <mxGeometry width="50" height="50" relative="1" as="geometry">
            <mxPoint x="140" y="229.9962204724411" as="sourcePoint" />
            <mxPoint x="50" y="261.1365365660231" as="targetPoint" />
          </mxGeometry>
        </mxCell>
        <mxCell id="Txa9qPDLx-QtBO518w3f-4" value="&lt;font style=&quot;font-size: 16px;&quot; color=&quot;#9933ff&quot;&gt;&lt;b&gt;mpg will be translated by the position on the y axis&lt;/b&gt;&lt;/font&gt;" style="text;html=1;strokeColor=#9933FF;fillColor=none;align=center;verticalAlign=middle;whiteSpace=wrap;rounded=0;strokeWidth=2;" vertex="1" parent="1">
          <mxGeometry x="60" y="350" width="190" height="90" as="geometry" />
        </mxCell>
        <mxCell id="Txa9qPDLx-QtBO518w3f-6" value="" style="endArrow=classic;html=1;rounded=0;strokeWidth=3;strokeColor=#9933FF;exitX=0;exitY=0.5;exitDx=0;exitDy=0;" edge="1" parent="1" source="Txa9qPDLx-QtBO518w3f-7">
          <mxGeometry width="50" height="50" relative="1" as="geometry">
            <mxPoint x="240" y="367.37" as="sourcePoint" />
            <mxPoint x="460" y="498.86425287356326" as="targetPoint" />
          </mxGeometry>
        </mxCell>
        <mxCell id="Txa9qPDLx-QtBO518w3f-7" value="&lt;font style=&quot;font-size: 16px;&quot; color=&quot;#9933ff&quot;&gt;&lt;b&gt;hp will be translated by the position on the x axis&lt;/b&gt;&lt;/font&gt;" style="text;html=1;strokeColor=#9933FF;fillColor=none;align=center;verticalAlign=middle;whiteSpace=wrap;rounded=0;strokeWidth=2;" vertex="1" parent="1">
          <mxGeometry x="560" y="400" width="190" height="98.86" as="geometry" />
        </mxCell>
        <mxCell id="Txa9qPDLx-QtBO518w3f-10" value="" style="endArrow=classic;html=1;rounded=0;strokeWidth=3;strokeColor=#00994D;exitX=0;exitY=0.5;exitDx=0;exitDy=0;" edge="1" parent="1" source="Txa9qPDLx-QtBO518w3f-11">
          <mxGeometry width="50" height="50" relative="1" as="geometry">
            <mxPoint x="200" y="157.37" as="sourcePoint" />
            <mxPoint x="420" y="288.86425287356326" as="targetPoint" />
          </mxGeometry>
        </mxCell>
        <mxCell id="Txa9qPDLx-QtBO518w3f-11" value="&lt;font color=&quot;#009900&quot; style=&quot;font-size: 16px;&quot;&gt;&lt;b style=&quot;&quot;&gt;each point is representing a car, and this is a layer conveyed to the geom_point()&lt;/b&gt;&lt;/font&gt;" style="text;html=1;strokeColor=#00994D;fillColor=none;align=center;verticalAlign=middle;whiteSpace=wrap;rounded=0;strokeWidth=2;" vertex="1" parent="1">
          <mxGeometry x="520" y="190" width="190" height="98.86" as="geometry" />
        </mxCell>
        <mxCell id="Txa9qPDLx-QtBO518w3f-12" value="" style="endArrow=classic;html=1;rounded=0;strokeWidth=3;strokeColor=#00994D;exitX=0;exitY=0.5;exitDx=0;exitDy=0;" edge="1" parent="1" source="Txa9qPDLx-QtBO518w3f-11">
          <mxGeometry width="50" height="50" relative="1" as="geometry">
            <mxPoint x="360" y="50" as="sourcePoint" />
            <mxPoint x="260" y="99.86425287356326" as="targetPoint" />
          </mxGeometry>
        </mxCell>
        <mxCell id="Txa9qPDLx-QtBO518w3f-13" value="" style="endArrow=classic;html=1;rounded=0;strokeWidth=3;strokeColor=#00994D;exitX=0;exitY=0.5;exitDx=0;exitDy=0;" edge="1" parent="1" source="Txa9qPDLx-QtBO518w3f-11">
          <mxGeometry width="50" height="50" relative="1" as="geometry">
            <mxPoint x="-150" y="311.5400000000001" as="sourcePoint" />
            <mxPoint x="205" y="179.99636363636398" as="targetPoint" />
          </mxGeometry>
        </mxCell>
      </root>
    </mxGraphModel>
  </diagram>
</mxfile>
